<svg width="218" height="53" viewBox="0 0 218 53" fill="none" xmlns="http://www.w3.org/2000/svg">
<mask id="mask0_45_27" style="mask-type:alpha" maskUnits="userSpaceOnUse" x="0" y="0" width="218" height="53">
<rect width="218" height="53" fill="#D9D9D9"/>
</mask>
<g mask="url(#mask0_45_27)">
<path d="M102.457 49.8452C97.5071 49.8452 93.402 48.8994 90.142 47.0078C86.8821 45.0961 84.5881 42.3594 83.2599 38.7976C81.9318 35.2157 81.6903 30.9295 82.5355 25.9389C83.3404 21.1496 85.0006 16.964 87.516 13.3821C90.0515 9.80019 93.241 7.01314 97.0845 5.02095C100.948 3.02876 105.275 2.03267 110.064 2.03267C113.565 2.03267 116.634 2.57599 119.27 3.66264C121.926 4.74929 124.09 6.32895 125.76 8.40163C127.43 10.4743 128.557 12.9796 129.141 15.9176C129.744 18.8355 129.744 22.1357 129.141 25.8182L128.537 29.6818H87.1236L88.5724 20.5057H114.652C114.853 19.1776 114.722 18.0104 114.26 17.0043C113.817 15.978 113.103 15.1831 112.116 14.6197C111.151 14.0361 109.983 13.7443 108.615 13.7443C107.247 13.7443 105.959 14.0361 104.751 14.6197C103.564 15.2032 102.548 16.0182 101.703 17.0646C100.878 18.111 100.324 19.3385 100.043 20.7472L98.2315 30.4062C97.9901 31.8954 98.0806 33.2235 98.5032 34.3906C98.9258 35.5578 99.6603 36.4734 100.707 37.1374C101.753 37.8015 103.101 38.1335 104.751 38.1335C105.878 38.1335 106.945 37.9826 107.951 37.6808C108.977 37.3588 109.883 36.896 110.668 36.2923C111.473 35.6684 112.116 34.9138 112.599 34.0284H127.812C126.726 37.2481 125.005 40.0452 122.651 42.4197C120.317 44.7741 117.439 46.6054 114.018 47.9134C110.617 49.2012 106.764 49.8452 102.457 49.8452Z" fill="white"/>
<path d="M139.903 49.6818C138.241 49.6818 136.885 49.1065 135.834 47.956C134.797 46.7912 134.364 45.3778 134.534 43.7159C134.705 42.0966 135.436 40.7116 136.729 39.5611C138.036 38.4105 139.52 37.8352 141.182 37.8352C142.759 37.8352 144.072 38.4105 145.124 39.5611C146.189 40.7116 146.636 42.0966 146.466 43.7159C146.352 44.8239 145.962 45.8324 145.294 46.7415C144.641 47.6364 143.831 48.3537 142.865 48.8935C141.913 49.419 140.926 49.6818 139.903 49.6818ZM158.653 49.6818C156.991 49.6818 155.635 49.1065 154.584 47.956C153.547 46.7912 153.114 45.3778 153.284 43.7159C153.455 42.0966 154.186 40.7116 155.479 39.5611C156.786 38.4105 158.27 37.8352 159.932 37.8352C161.509 37.8352 162.822 38.4105 163.874 39.5611C164.939 40.7116 165.386 42.0966 165.216 43.7159C165.102 44.8239 164.712 45.8324 164.044 46.7415C163.391 47.6364 162.581 48.3537 161.615 48.8935C160.663 49.419 159.676 49.6818 158.653 49.6818Z" fill="#FF2D11"/>
<path d="M57.1605 49.7244C54.2225 49.7244 51.6971 49.2415 49.5842 48.2756C47.4914 47.2895 45.962 45.8004 44.9961 43.8082C44.0503 41.7959 43.839 39.2604 44.3622 36.2017C44.7848 33.6662 45.5797 31.503 46.7468 29.712C47.9139 27.921 49.3628 26.4521 51.0934 25.305C52.824 24.158 54.7659 23.2827 56.919 22.679C59.0923 22.0552 61.3864 21.6527 63.8011 21.4716C66.4171 21.2704 68.5401 21.0188 70.1701 20.717C71.8001 20.4151 73.0175 20.0026 73.8224 19.4794C74.6274 18.9562 75.1103 18.2519 75.2713 17.3665V17.2457C75.4524 16.0384 75.1304 15.1127 74.3054 14.4688C73.5005 13.8248 72.3736 13.5028 70.9247 13.5028C69.3551 13.5028 67.9968 13.8449 66.8498 14.5291C65.7229 15.2133 64.9482 16.2798 64.5256 17.7287H49.1918C49.8357 14.9115 51.1538 12.3156 53.146 9.94105C55.1583 7.5464 57.8246 5.63471 61.1449 4.20597C64.4853 2.7571 68.4697 2.03267 73.098 2.03267C76.3982 2.03267 79.2959 2.42507 81.7912 3.20987C84.2865 3.97455 86.3491 5.05114 87.979 6.43963C89.6291 7.808 90.7862 9.41785 91.4503 11.2692C92.1345 13.1004 92.2955 15.0926 91.9332 17.2457L86.6207 49H71.0455L72.1321 42.4801H71.7699C70.5625 44.2107 69.2042 45.6093 67.695 46.6758C66.2058 47.7423 64.5759 48.517 62.805 49C61.0543 49.483 59.1728 49.7244 57.1605 49.7244ZM64.4048 39.2202C65.6525 39.2202 66.88 38.9586 68.0874 38.4354C69.2947 37.9122 70.3311 37.1576 71.1964 36.1715C72.0617 35.1855 72.6151 33.9882 72.8565 32.5795L73.4602 28.7159C73.0175 28.897 72.5245 29.0681 71.9812 29.229C71.458 29.3699 70.9046 29.5108 70.321 29.6516C69.7576 29.7925 69.1539 29.9233 68.5099 30.044C67.8861 30.1648 67.2422 30.2855 66.5781 30.4062C65.25 30.6075 64.1332 30.9395 63.2276 31.4023C62.3221 31.8451 61.6178 32.3984 61.1147 33.0625C60.6116 33.7064 60.2997 34.4309 60.179 35.2358C59.9979 36.5036 60.2897 37.4896 61.0543 38.1939C61.8391 38.8781 62.956 39.2202 64.4048 39.2202Z" fill="white"/>
</g>
</svg>
